<?xml version="1.0" standalone="no"?>
<!DOCTYPE svg PUBLIC "-//W3C//DTD SVG 20010904//EN"
 "http://www.w3.org/TR/2001/REC-SVG-20010904/DTD/svg10.dtd">
<svg version="1.0" xmlns="http://www.w3.org/2000/svg"
 width="500.000000pt" height="500.000000pt" viewBox="0 0 500.000000 500.000000"
 preserveAspectRatio="xMidYMid meet">

<g transform="translate(0.000000,500.000000) scale(0.100000,-0.100000)"
fill="#000000" stroke="none">
<path d="M2725 4809 c-52 -13 -82 -41 -116 -114 -34 -70 -35 -95 -10 -150 22
-48 44 -69 94 -90 93 -39 231 6 274 90 l16 29 33 -38 c36 -42 48 -75 14 -38
-12 12 -24 22 -27 22 -4 0 11 -19 34 -42 72 -75 109 -133 133 -207 19 -60 22
-85 17 -159 -3 -48 -14 -116 -26 -152 l-20 -65 -118 -1 c-164 -1 -301 -38
-484 -129 -228 -114 -315 -190 -389 -340 -62 -126 -83 -231 -84 -415 -1 -186
13 -248 72 -308 20 -21 67 -74 103 -118 117 -142 222 -205 453 -271 68 -19
117 -26 190 -27 68 -1 101 -5 103 -13 3 -9 9 -10 23 -1 14 9 22 9 34 -1 9 -8
16 -9 16 -4 0 6 28 14 63 17 34 4 89 16 121 27 69 22 196 90 246 131 39 31 58
35 66 13 4 -8 10 -15 15 -15 5 0 2 11 -6 24 -18 27 -4 46 19 27 11 -9 12 -6 8
15 -4 21 5 36 45 77 73 76 119 141 139 198 13 34 22 48 32 44 8 -3 16 3 19 15
3 11 10 20 15 20 17 0 -3 211 -33 340 -47 201 -156 399 -262 477 l-31 23 -1
113 c-1 83 -6 122 -18 147 -10 18 -17 49 -17 69 0 65 -28 167 -64 238 -38 77
-137 213 -184 255 -79 70 -198 138 -242 138 -12 0 -24 9 -29 23 -14 37 -61 86
-100 106 -49 25 -89 31 -136 20z m105 -29 c13 -9 13 -10 0 -10 -8 0 -22 5 -30
10 -13 9 -13 10 0 10 8 0 22 -5 30 -10z m39 -69 c33 -24 39 -37 19 -44 -10 -3
-10 -8 -2 -18 14 -19 12 -38 -4 -48 -8 -5 -13 -12 -11 -17 4 -13 -58 -52 -102
-65 -71 -22 -114 4 -124 75 -9 58 9 112 43 130 41 22 142 15 181 -13z m226
-152 c24 -20 68 -64 98 -99 56 -64 153 -208 145 -215 -2 -3 -21 22 -42 54 -37
59 -76 102 -76 85 0 -5 6 -18 14 -29 31 -46 105 -195 129 -262 30 -83 49 -253
28 -253 -9 0 -10 -10 -6 -32 l7 -32 -23 17 c-30 22 -144 77 -160 77 -7 0 -9 9
-5 23 4 12 14 76 22 142 24 183 8 285 -61 390 -37 57 -148 175 -164 175 -6 0
-11 7 -11 16 0 13 4 13 31 -3 17 -10 50 -34 74 -54z m-166 -25 c-31 -33 -37
-22 -8 14 13 16 26 25 28 20 2 -5 -7 -20 -20 -34z m420 -197 c40 -63 82 -154
95 -212 11 -45 -9 -19 -27 36 -17 49 -76 165 -109 212 -11 15 -15 27 -10 27 5
0 28 -28 51 -63z m144 -584 l-10 -28 -18 28 c-15 24 -16 33 -6 66 6 21 11 56
11 78 0 22 3 43 8 47 11 12 25 -160 15 -191z m-395 109 c9 -7 10 -16 1 -41
-16 -46 -2 -51 32 -11 l29 35 -5 -35 -6 -35 18 33 c9 17 23 32 31 32 18 0 127
-61 160 -89 21 -18 22 -23 12 -62 -13 -47 -8 -61 12 -30 7 12 22 21 33 21 39
0 201 -194 230 -276 17 -51 1 -228 -30 -321 -35 -101 -57 -135 -179 -270 -51
-57 -222 -206 -261 -227 -16 -9 -37 -21 -45 -26 -55 -35 -183 -82 -258 -95
-123 -22 -302 -19 -367 7 -27 11 -53 24 -56 30 -3 5 -10 9 -15 9 -5 -1 -17 6
-27 14 -9 8 -21 15 -26 15 -25 0 -171 183 -171 214 0 9 -11 45 -25 81 -46 124
-55 306 -19 408 17 47 17 50 4 42 -5 -3 -10 0 -11 7 0 7 -6 -6 -13 -28 -14
-45 -53 -107 -43 -69 3 11 11 40 17 65 21 82 54 164 86 216 31 48 152 169 161
160 3 -2 -16 -32 -41 -65 -53 -72 -110 -170 -103 -177 2 -2 37 39 76 92 40 52
81 105 92 117 57 62 88 90 129 114 25 14 52 32 60 39 28 23 169 74 262 93 96
20 234 27 256 13z m-997 -843 l-8 -74 -2 62 c-1 56 6 99 15 90 2 -2 0 -37 -5
-78z m36 -71 c-3 -8 -6 -5 -6 6 -1 11 2 17 5 13 3 -3 4 -12 1 -19z"/>
<path d="M2675 4668 c-4 -16 -4 -40 0 -55 l8 -28 7 28 c5 15 5 39 0 55 l-7 27
-8 -27z"/>
<path d="M2440 3446 c-14 -8 -34 -27 -46 -43 -43 -59 -49 -91 -49 -251 l0
-153 39 -36 c35 -32 42 -35 83 -30 85 9 115 68 134 260 12 126 6 207 -20 238
-22 27 -104 36 -141 15z"/>
<path d="M3054 3453 c-12 -2 -36 -16 -54 -31 -31 -26 -33 -32 -42 -127 -5 -55
-7 -147 -4 -204 4 -88 8 -107 27 -127 31 -33 97 -41 146 -18 61 30 76 72 77
223 1 164 -7 213 -46 256 -30 35 -47 39 -104 28z"/>
<path d="M3583 2405 c7 -14 16 -25 20 -25 9 0 -9 36 -22 44 -5 4 -4 -5 2 -19z"/>
<path d="M3630 2395 c0 -5 5 -17 10 -25 5 -8 10 -10 10 -5 0 6 -5 17 -10 25
-5 8 -10 11 -10 5z"/>
<path d="M3616 2338 c10 -21 21 -38 26 -38 4 0 8 -7 8 -15 0 -8 -6 -15 -12
-15 -9 0 -8 -4 2 -10 21 -13 27 -12 34 6 3 8 2 13 -3 10 -5 -3 -12 4 -15 17
-3 12 -18 36 -32 52 l-25 30 17 -37z"/>
<path d="M3359 2293 c-13 -17 -13 -17 6 -3 11 8 22 16 24 17 2 2 0 3 -6 3 -6
0 -17 -8 -24 -17z"/>
<path d="M3685 2248 c-6 -16 -1 -45 8 -54 12 -13 7 -24 -8 -18 -22 9 -18 -5 6
-25 12 -9 23 -28 24 -42 5 -53 6 -55 14 -34 8 20 -5 64 -24 78 -6 4 -5 10 5
17 11 7 12 12 3 21 -6 6 -9 18 -6 25 3 8 0 14 -7 14 -7 0 -10 7 -6 15 3 8 3
15 0 15 -2 0 -7 -6 -9 -12z"/>
<path d="M3060 2236 c0 -3 7 -23 15 -43 8 -21 19 -60 25 -88 18 -88 21 -99 28
-105 4 -3 8 -22 10 -43 2 -34 25 -94 41 -107 4 -3 12 -18 19 -34 10 -22 16
-26 24 -18 14 14 -20 84 -36 75 -5 -4 -7 0 -4 8 3 8 0 26 -8 40 -7 13 -13 34
-14 47 0 13 -8 37 -17 55 -9 18 -16 36 -14 41 2 8 -11 49 -36 116 -4 8 -5 20
-4 26 0 6 -6 17 -14 24 -8 7 -15 10 -15 6z"/>
<path d="M3445 2220 c3 -5 8 -10 11 -10 2 0 4 5 4 10 0 6 -5 10 -11 10 -5 0
-7 -4 -4 -10z"/>
<path d="M3007 2170 c-3 -25 -8 -75 -11 -111 -3 -36 -14 -89 -24 -117 -12 -30
-16 -55 -11 -64 15 -23 10 -33 -7 -12 -15 18 -15 18 -8 -5 4 -15 2 -21 -4 -17
-6 4 -16 -3 -22 -14 -7 -13 -7 -20 0 -20 5 0 10 8 11 18 0 12 3 10 10 -7 5
-13 7 -26 4 -29 -3 -3 -5 0 -5 6 0 6 -7 9 -15 6 -8 -4 -15 -14 -15 -24 0 -11
-5 -22 -10 -25 -6 -4 -9 -3 -8 2 2 4 -1 10 -7 13 -9 4 -37 -63 -49 -120 -3
-14 -17 -37 -31 -52 -25 -28 -31 -39 -17 -37 20 3 18 -3 -6 -29 -15 -16 -55
-61 -90 -100 -35 -40 -68 -72 -75 -72 -6 0 1 12 15 28 47 51 91 121 85 136 -4
9 1 17 14 21 16 5 17 10 7 28 -10 20 -10 21 5 9 14 -12 19 -6 44 45 15 32 26
61 25 66 -1 4 2 7 8 7 5 0 15 18 21 40 7 21 16 37 21 34 13 -8 26 38 34 127
12 119 7 270 -7 247 -4 -7 -13 1 -23 21 -22 41 -26 39 -16 -6 35 -167 37 -203
11 -304 -11 -41 -21 -81 -23 -89 -1 -8 -6 -17 -9 -20 -3 -3 -15 -25 -28 -50
-35 -71 -48 -92 -63 -101 -7 -5 -13 -12 -13 -16 -1 -21 -41 -73 -57 -73 -10 0
-45 -25 -78 -55 -39 -36 -68 -55 -85 -55 -14 0 -25 -4 -25 -10 0 -16 53 -12
79 6 l23 17 -16 -26 c-24 -36 -83 -73 -146 -91 -62 -18 -292 -39 -300 -28 -4
4 -12 30 -19 57 -6 28 -29 84 -49 125 -36 72 -41 78 -136 142 -55 36 -104 64
-110 62 -14 -5 -52 -101 -67 -169 -19 -83 -16 -271 5 -335 43 -132 63 -226 58
-277 -7 -87 -2 -89 234 -96 113 -4 240 -2 294 4 52 5 150 13 217 18 67 5 127
12 133 16 7 4 34 -3 60 -15 51 -24 60 -43 60 -132 0 -21 5 -38 10 -38 6 0 10
5 10 11 0 13 39 2 61 -17 18 -16 142 -19 204 -4 22 5 98 14 168 20 131 11 218
34 250 68 56 58 136 209 158 298 7 27 23 71 36 98 28 56 108 258 118 298 6 22
3 27 -17 30 l-23 3 28 28 c15 15 27 38 26 50 -1 20 -2 20 -8 -3 -4 -15 -14
-24 -24 -24 -9 1 -14 -3 -10 -9 3 -6 1 -7 -5 -3 -15 9 -16 36 -2 36 6 0 10 5
10 11 0 5 -4 7 -10 4 -6 -3 -10 4 -10 17 0 17 3 19 9 10 5 -8 7 52 5 138 -1
84 -5 155 -8 158 -3 3 -6 -24 -6 -61 0 -130 -21 -321 -37 -339 -18 -20 -92
-17 -148 6 -18 8 -36 12 -39 8 -3 -3 -6 0 -6 6 0 7 -16 18 -35 26 -74 31 -232
213 -250 289 -6 22 -10 25 -21 16 -8 -6 -14 -14 -14 -18 0 -20 119 -182 169
-231 14 -14 33 -38 41 -55 21 -44 59 -95 72 -95 6 0 18 -8 27 -18 16 -18 59
-48 96 -67 28 -15 25 -39 -20 -165 -70 -192 -150 -274 -305 -309 -59 -14 -251
-7 -317 12 -67 18 -129 61 -138 95 -4 15 -6 64 -6 110 1 92 18 142 68 201 l29
34 73 -13 73 -12 29 -65 c32 -71 33 -77 20 -68 -29 17 -17 -94 16 -158 15 -29
17 -30 24 -12 6 15 8 16 8 4 1 -26 29 -45 44 -30 13 13 -10 144 -36 202 -8 19
-26 59 -40 90 -14 32 -47 80 -74 108 -39 41 -56 51 -82 51 -37 0 -84 -22 -103
-48 -7 -10 -28 -29 -46 -42 -56 -42 -76 -98 -82 -234 l-5 -119 -57 -12 -58
-11 -32 33 c-35 36 -54 43 -39 14 9 -17 8 -18 -12 -13 -21 5 -21 4 -5 -15 10
-11 18 -23 18 -27 0 -10 -187 1 -329 19 -153 20 -230 40 -328 86 l-82 39 -12
57 c-17 81 -31 425 -17 438 3 3 23 -3 45 -13 64 -33 164 -171 182 -251 5 -24
15 -48 23 -53 7 -5 63 -7 123 -5 96 3 106 2 80 -9 l-30 -13 33 -1 c22 0 32 -5
32 -15 0 -9 6 -18 14 -21 16 -6 98 33 166 79 25 17 59 39 75 50 30 20 30 20
10 0 -19 -19 -96 -85 -224 -192 -28 -24 -50 -46 -47 -48 18 -18 368 263 453
365 37 44 48 63 104 175 12 23 29 51 38 62 27 32 45 75 43 100 -1 15 4 22 14
21 14 -1 35 41 49 94 2 8 8 29 15 45 21 53 28 128 21 210 -7 76 -8 78 -14 35z
m-115 -469 c-9 -16 -18 -28 -21 -26 -4 5 27 55 34 55 2 0 -4 -13 -13 -29z
m-812 -412 c0 -11 -4 -19 -10 -19 -5 0 -10 6 -10 14 0 8 -3 23 -7 33 -6 16 -5
16 10 4 9 -7 17 -22 17 -32z m1087 -261 c-3 -8 -6 -5 -6 6 -1 11 2 17 5 13 3
-3 4 -12 1 -19z m-1324 -198 c3 -11 1 -18 -4 -14 -5 3 -9 12 -9 20 0 20 7 17
13 -6z m1103 -185 l49 -13 -39 -1 c-22 -1 -47 5 -55 13 -9 8 -23 16 -31 18
-18 4 -30 18 -30 37 0 10 10 5 29 -13 16 -15 51 -33 77 -41z"/>
<path d="M3515 2200 c-3 -5 -1 -10 4 -10 6 0 11 5 11 10 0 6 -2 10 -4 10 -3 0
-8 -4 -11 -10z"/>
<path d="M3490 2155 c-10 -12 -10 -18 -2 -26 7 -5 10 -6 7 -2 -3 3 2 15 12 25
9 10 11 18 6 18 -6 0 -16 -7 -23 -15z"/>
<path d="M3336 2147 c3 -10 9 -15 12 -12 3 3 0 11 -7 18 -10 9 -11 8 -5 -6z"/>
<path d="M3617 2153 c-4 -3 -7 -11 -7 -17 0 -6 5 -5 12 2 6 6 9 14 7 17 -3 3
-9 2 -12 -2z"/>
<path d="M3308 2093 c7 -3 16 -2 19 1 4 3 -2 6 -13 5 -11 0 -14 -3 -6 -6z"/>
<path d="M3188 2073 c7 -3 16 -2 19 1 4 3 -2 6 -13 5 -11 0 -14 -3 -6 -6z"/>
<path d="M3740 2061 c0 -11 -6 -21 -12 -24 -7 -3 -4 -5 8 -4 16 1 19 6 16 24
-5 28 -12 30 -12 4z"/>
<path d="M3747 1976 c-4 -10 -5 -21 -2 -24 9 -9 17 6 13 25 -3 17 -4 17 -11
-1z"/>
<path d="M3660 1947 c-23 -31 -23 -32 -1 -12 19 16 24 17 32 5 7 -12 8 -10 6
7 -5 35 -12 35 -37 0z"/>
<path d="M3313 1958 c-23 -30 -24 -41 -2 -21 12 12 20 25 17 28 -3 3 -10 0
-15 -7z"/>
<path d="M3400 1950 c19 -11 40 -19 45 -19 6 0 -6 8 -25 19 -19 11 -39 19 -45
19 -5 0 6 -8 25 -19z"/>
<path d="M3594 1946 c11 -9 24 -16 30 -16 12 0 7 5 -24 19 -24 11 -24 11 -6
-3z"/>
<path d="M3756 1917 c3 -10 9 -15 12 -12 3 3 0 11 -7 18 -10 9 -11 8 -5 -6z"/>
<path d="M3701 1874 c0 -11 3 -14 6 -6 3 7 2 16 -1 19 -3 4 -6 -2 -5 -13z"/>
<path d="M3387 1833 c-9 -14 9 -63 22 -63 5 0 13 5 16 10 3 6 2 10 -4 10 -5 0
-13 12 -18 27 -6 16 -12 23 -16 16z"/>
<path d="M3576 1784 c-3 -9 -6 -23 -5 -32 1 -10 4 -7 8 8 4 14 13 24 20 22 7
-1 10 2 6 8 -9 15 -22 12 -29 -6z"/>
<path d="M3276 1768 c3 -5 8 -7 11 -4 3 3 12 -1 20 -9 8 -8 19 -15 24 -15 6 0
3 8 -7 18 -18 18 -58 26 -48 10z"/>
<path d="M3488 1693 c7 -3 16 -2 19 1 4 3 -2 6 -13 5 -11 0 -14 -3 -6 -6z"/>
</g>
</svg>
